<svg xmlns="http://www.w3.org/2000/svg" viewBox="0 0 511.996 511.996"><path d="M443.729 162.127a8.536 8.536 0 01-8.533-8.533V85.327c0-4.71 3.823-8.533 8.533-8.533s8.533 3.823 8.533 8.533v68.267a8.536 8.536 0 01-8.533 8.533z" fill="#5a6470"/><circle cx="443.729" cy="179.194" r="25.6" fill="#7d8d9c"/><path fill="#5a6470" d="M247.462 162.127l-128-50.091v195.158h256V112.036z"/><path d="M392.529 332.794a42.758 42.758 0 00-34.133 17.067c-11.375 15.172-11.375 36.028 0 51.2 14.14 18.85 40.883 22.673 59.733 8.533 18.85-14.14 22.673-40.883 8.533-59.733a42.684 42.684 0 00-34.133-17.067z" fill="#fff69a"/><path d="M358.396 401.06c-11.375-15.172-11.375-36.028 0-51.2a42.758 42.758 0 0134.133-17.067H102.396c-23.561 0-42.667 19.106-42.667 42.667s19.106 42.667 42.667 42.667h9.387a43.198 43.198 0 010-17.067c4.693-23.091 27.213-38.016 50.304-33.323a42.669 42.669 0 0133.323 33.323 43.198 43.198 0 010 17.067h197.12a42.77 42.77 0 01-34.134-17.067z" fill="#fdbd40"/><path d="M195.409 401.06c-4.693-23.091-27.213-38.016-50.304-33.323a42.669 42.669 0 00-33.323 33.323 43.198 43.198 0 000 17.067 41.963 41.963 0 007.68 17.067c14.037 18.85 40.695 22.758 59.546 8.721a43.108 43.108 0 008.721-8.721 41.957 41.957 0 007.68-17.067 43.198 43.198 0 000-17.067z" fill="#dd3e46"/><path d="M170.662 448.762c-18.142 7.945-39.373 2.321-51.2-13.568v68.267a8.417 8.417 0 005.291 7.851 8.525 8.525 0 009.301-1.792l19.541-19.627 19.541 19.627a8.635 8.635 0 006.059 2.475 7.217 7.217 0 003.243-.683 8.417 8.417 0 005.291-7.851v-68.267a43.548 43.548 0 01-17.067 13.568z" fill="#f98c96"/><path d="M446.835 77.382L250.568.582a8.569 8.569 0 00-6.212 0L48.09 77.382c-4.395 1.715-6.554 6.665-4.83 11.059a8.565 8.565 0 004.83 4.83l196.267 76.8a8.487 8.487 0 006.212 0l196.267-76.8c4.386-1.724 6.554-6.673 4.83-11.059a8.52 8.52 0 00-4.831-4.83z" fill="#7d8d9c"/></svg>